<svg id="visual" viewBox="111.23 24.47 677.54 551.05" width="900" height="600" xmlns="http://www.w3.org/2000/svg" xmlns:xlink="http://www.w3.org/1999/xlink" version="1.1"><g transform="translate(491.50346166072154 295.32569237229427)"><path d="M244.7 -267.1C296.6 -248.1 303.9 -151.5 292.8 -72.6C281.7 6.3 252.1 67.4 210.4 104.4C168.7 141.4 114.8 154.3 57.3 189C-0.2 223.6 -61.3 280 -120 280.2C-178.6 280.3 -234.8 224.1 -287.6 155.2C-340.4 86.2 -389.8 4.4 -378.7 -68.2C-367.6 -140.7 -296 -204 -222.8 -219.3C-149.6 -234.5 -74.8 -201.6 10.8 -214.5C96.4 -227.4 192.8 -286.1 244.7 -267.1" fill="#6955EA"></path></g></svg>