<svg xmlns="http://www.w3.org/2000/svg" xmlns:xlink="http://www.w3.org/1999/xlink" width="500" zoomAndPan="magnify" viewBox="0 0 375 225" height="300" preserveAspectRatio="xMidYMid meet" version="1.0"><defs><g/><clipPath id="f4cf524fc3"><path d="M 2 4 L 255 4 L 255 223 L 2 223 Z M 2 4 " clip-rule="nonzero"/></clipPath><clipPath id="f86197a524"><path d="M -38.589844 51.257812 L 179.351562 -31.851562 L 263.796875 189.59375 L 45.855469 272.703125 Z M -38.589844 51.257812 " clip-rule="nonzero"/></clipPath><clipPath id="9d0bad7638"><path d="M -38.589844 51.257812 L 179.351562 -31.851562 L 263.796875 189.59375 L 45.855469 272.703125 Z M -38.589844 51.257812 " clip-rule="nonzero"/></clipPath><clipPath id="1d55539f35"><path d="M 61.050781 188.003906 C 61.050781 188.003906 46.273438 152.214844 50.910156 124.835938 C 55.550781 97.460938 59.53125 78.242188 59.53125 78.242188 C 59.53125 78.242188 26.527344 128.109375 25.761719 170.582031 C 24.992188 213.050781 26.605469 222.226562 26.605469 222.226562 C 26.605469 222.226562 -3.953125 140.109375 3.851562 103.242188 C 14.976562 50.667969 43.746094 29.449219 83.835938 4.578125 C 83.835938 4.578125 73.648438 35.199219 82.015625 43.304688 C 90.386719 51.414062 103.832031 53.0625 103.832031 53.0625 C 103.832031 53.0625 101.402344 45.707031 98.191406 46.175781 C 94.976562 46.648438 116.007812 40.511719 124.273438 40.9375 C 132.542969 41.363281 135.964844 41.941406 135.964844 41.941406 C 135.964844 41.941406 123.890625 30.539062 119 29.578125 C 114.113281 28.621094 111.457031 29.066406 111.457031 29.066406 C 111.457031 29.066406 147.484375 29.640625 151.691406 30.292969 C 155.898438 30.949219 161.730469 34.375 161.730469 34.375 L 153.507812 15.289062 C 153.507812 15.289062 170.136719 26.273438 172.988281 31.777344 C 175.839844 37.277344 178.636719 41.390625 178.636719 41.390625 L 182.3125 27.5625 C 182.3125 27.5625 182.003906 35.398438 183.1875 38.996094 C 184.371094 42.59375 184.839844 43.828125 184.839844 43.828125 C 184.839844 43.828125 187.925781 36.34375 190.277344 33.375 C 192.632812 30.40625 194.417969 29.160156 194.417969 29.160156 C 194.417969 29.160156 189.589844 43.429688 194.5 52.851562 C 199.414062 62.277344 204 67.871094 206.507812 70.496094 C 209.015625 73.117188 218.378906 86.304688 221.464844 93.414062 C 224.550781 100.519531 224.585938 114.441406 224.585938 114.441406 C 224.585938 114.441406 212.800781 99.351562 200.589844 97.984375 C 188.382812 96.613281 172.242188 99.753906 172.242188 99.753906 C 172.242188 99.753906 177.789062 96.507812 179.589844 94.316406 C 181.394531 92.121094 177.585938 89.054688 166.945312 87.839844 C 156.304688 86.625 146.980469 84.910156 146.980469 84.910156 L 158.496094 80.515625 L 155.722656 78.1875 L 164.359375 66.230469 C 58.421875 98.144531 125.828125 219.886719 224.773438 182.15625 C 241.226562 175.882812 254.863281 166.164062 254.863281 166.164062 C 206.316406 211.511719 112.777344 238.894531 81.738281 165.898438 C 74.4375 148.726562 72.886719 127.851562 72.886719 127.851562 C 72.886719 127.851562 58.8125 132.464844 61.050781 188.003906 Z M 187.175781 74.195312 L 189.289062 78.003906 L 200.21875 81.460938 L 193.195312 74.160156 Z M 187.175781 74.195312 " clip-rule="evenodd"/></clipPath><linearGradient x1="118610.888459" gradientTransform="matrix(0.00186573, -0.000711459, 0.000710791, 0.00186398, -366.83447, 0.97646)" y1="197161.933537" x2="295259.263763" gradientUnits="userSpaceOnUse" y2="74378.648835" id="cfc1873545"><stop stop-opacity="1" stop-color="rgb(5.899048%, 64.299011%, 45.098877%)" offset="0"/><stop stop-opacity="1" stop-color="rgb(5.899048%, 64.299011%, 45.098877%)" offset="0.125"/><stop stop-opacity="1" stop-color="rgb(5.899048%, 64.299011%, 45.098877%)" offset="0.1875"/><stop stop-opacity="1" stop-color="rgb(5.899048%, 64.299011%, 45.098877%)" offset="0.203125"/><stop stop-opacity="1" stop-color="rgb(5.892944%, 64.263916%, 45.074463%)" offset="0.210938"/><stop stop-opacity="1" stop-color="rgb(5.856323%, 64.03656%, 44.909668%)" offset="0.21875"/><stop stop-opacity="1" stop-color="rgb(5.793762%, 63.647461%, 44.630432%)" offset="0.226563"/><stop stop-opacity="1" stop-color="rgb(5.731201%, 63.258362%, 44.351196%)" offset="0.234375"/><stop stop-opacity="1" stop-color="rgb(5.66864%, 62.869263%, 44.070435%)" offset="0.242188"/><stop stop-opacity="1" stop-color="rgb(5.606079%, 62.481689%, 43.791199%)" offset="0.25"/><stop stop-opacity="1" stop-color="rgb(5.543518%, 62.09259%, 43.511963%)" offset="0.257812"/><stop stop-opacity="1" stop-color="rgb(5.480957%, 61.703491%, 43.232727%)" offset="0.265625"/><stop stop-opacity="1" stop-color="rgb(5.418396%, 61.315918%, 42.953491%)" offset="0.273438"/><stop stop-opacity="1" stop-color="rgb(5.355835%, 60.926819%, 42.674255%)" offset="0.28125"/><stop stop-opacity="1" stop-color="rgb(5.293274%, 60.53772%, 42.393494%)" offset="0.289063"/><stop stop-opacity="1" stop-color="rgb(5.230713%, 60.148621%, 42.114258%)" offset="0.296875"/><stop stop-opacity="1" stop-color="rgb(5.168152%, 59.761047%, 41.835022%)" offset="0.304688"/><stop stop-opacity="1" stop-color="rgb(5.105591%, 59.371948%, 41.555786%)" offset="0.3125"/><stop stop-opacity="1" stop-color="rgb(5.04303%, 58.982849%, 41.27655%)" offset="0.320313"/><stop stop-opacity="1" stop-color="rgb(4.980469%, 58.595276%, 40.997314%)" offset="0.328125"/><stop stop-opacity="1" stop-color="rgb(4.917908%, 58.206177%, 40.718079%)" offset="0.335938"/><stop stop-opacity="1" stop-color="rgb(4.855347%, 57.817078%, 40.437317%)" offset="0.34375"/><stop stop-opacity="1" stop-color="rgb(4.792786%, 57.427979%, 40.158081%)" offset="0.351563"/><stop stop-opacity="1" stop-color="rgb(4.730225%, 57.040405%, 39.878845%)" offset="0.359375"/><stop stop-opacity="1" stop-color="rgb(4.666138%, 56.651306%, 39.599609%)" offset="0.367188"/><stop stop-opacity="1" stop-color="rgb(4.603577%, 56.262207%, 39.320374%)" offset="0.375"/><stop stop-opacity="1" stop-color="rgb(4.541016%, 55.874634%, 39.041138%)" offset="0.382813"/><stop stop-opacity="1" stop-color="rgb(4.478455%, 55.485535%, 38.760376%)" offset="0.390625"/><stop stop-opacity="1" stop-color="rgb(4.415894%, 55.096436%, 38.48114%)" offset="0.394669"/><stop stop-opacity="1" stop-color="rgb(4.385376%, 54.902649%, 38.342285%)" offset="0.398438"/><stop stop-opacity="1" stop-color="rgb(4.353333%, 54.707336%, 38.201904%)" offset="0.40625"/><stop stop-opacity="1" stop-color="rgb(4.290771%, 54.319763%, 37.922668%)" offset="0.414063"/><stop stop-opacity="1" stop-color="rgb(4.22821%, 53.930664%, 37.643433%)" offset="0.421875"/><stop stop-opacity="1" stop-color="rgb(4.165649%, 53.541565%, 37.364197%)" offset="0.429688"/><stop stop-opacity="1" stop-color="rgb(4.103088%, 53.153992%, 37.083435%)" offset="0.4375"/><stop stop-opacity="1" stop-color="rgb(4.040527%, 52.764893%, 36.804199%)" offset="0.445313"/><stop stop-opacity="1" stop-color="rgb(3.977966%, 52.375793%, 36.524963%)" offset="0.453125"/><stop stop-opacity="1" stop-color="rgb(3.915405%, 51.986694%, 36.245728%)" offset="0.460938"/><stop stop-opacity="1" stop-color="rgb(3.852844%, 51.599121%, 35.966492%)" offset="0.46875"/><stop stop-opacity="1" stop-color="rgb(3.790283%, 51.210022%, 35.687256%)" offset="0.476562"/><stop stop-opacity="1" stop-color="rgb(3.727722%, 50.820923%, 35.406494%)" offset="0.484375"/><stop stop-opacity="1" stop-color="rgb(3.665161%, 50.43335%, 35.127258%)" offset="0.492188"/><stop stop-opacity="1" stop-color="rgb(3.6026%, 50.04425%, 34.848022%)" offset="0.5"/><stop stop-opacity="1" stop-color="rgb(3.540039%, 49.655151%, 34.568787%)" offset="0.507812"/><stop stop-opacity="1" stop-color="rgb(3.477478%, 49.267578%, 34.289551%)" offset="0.515625"/><stop stop-opacity="1" stop-color="rgb(3.414917%, 48.878479%, 34.010315%)" offset="0.523438"/><stop stop-opacity="1" stop-color="rgb(3.352356%, 48.48938%, 33.729553%)" offset="0.53125"/><stop stop-opacity="1" stop-color="rgb(3.289795%, 48.100281%, 33.450317%)" offset="0.539062"/><stop stop-opacity="1" stop-color="rgb(3.227234%, 47.712708%, 33.171082%)" offset="0.546875"/><stop stop-opacity="1" stop-color="rgb(3.164673%, 47.323608%, 32.891846%)" offset="0.554688"/><stop stop-opacity="1" stop-color="rgb(3.102112%, 46.934509%, 32.61261%)" offset="0.5625"/><stop stop-opacity="1" stop-color="rgb(3.039551%, 46.546936%, 32.333374%)" offset="0.570312"/><stop stop-opacity="1" stop-color="rgb(2.97699%, 46.157837%, 32.052612%)" offset="0.578125"/><stop stop-opacity="1" stop-color="rgb(2.914429%, 45.768738%, 31.773376%)" offset="0.585938"/><stop stop-opacity="1" stop-color="rgb(2.851868%, 45.379639%, 31.494141%)" offset="0.59375"/><stop stop-opacity="1" stop-color="rgb(2.789307%, 44.992065%, 31.214905%)" offset="0.601563"/><stop stop-opacity="1" stop-color="rgb(2.726746%, 44.602966%, 30.935669%)" offset="0.605331"/><stop stop-opacity="1" stop-color="rgb(2.696228%, 44.40918%, 30.796814%)" offset="0.609375"/><stop stop-opacity="1" stop-color="rgb(2.664185%, 44.213867%, 30.656433%)" offset="0.617188"/><stop stop-opacity="1" stop-color="rgb(2.601624%, 43.826294%, 30.375671%)" offset="0.625"/><stop stop-opacity="1" stop-color="rgb(2.539062%, 43.437195%, 30.096436%)" offset="0.632812"/><stop stop-opacity="1" stop-color="rgb(2.476501%, 43.048096%, 29.8172%)" offset="0.640625"/><stop stop-opacity="1" stop-color="rgb(2.41394%, 42.658997%, 29.537964%)" offset="0.648438"/><stop stop-opacity="1" stop-color="rgb(2.351379%, 42.271423%, 29.258728%)" offset="0.65625"/><stop stop-opacity="1" stop-color="rgb(2.288818%, 41.882324%, 28.979492%)" offset="0.664062"/><stop stop-opacity="1" stop-color="rgb(2.226257%, 41.493225%, 28.69873%)" offset="0.671875"/><stop stop-opacity="1" stop-color="rgb(2.163696%, 41.105652%, 28.419495%)" offset="0.679687"/><stop stop-opacity="1" stop-color="rgb(2.101135%, 40.716553%, 28.140259%)" offset="0.6875"/><stop stop-opacity="1" stop-color="rgb(2.038574%, 40.327454%, 27.861023%)" offset="0.695313"/><stop stop-opacity="1" stop-color="rgb(1.976013%, 39.938354%, 27.581787%)" offset="0.703125"/><stop stop-opacity="1" stop-color="rgb(1.913452%, 39.550781%, 27.302551%)" offset="0.710938"/><stop stop-opacity="1" stop-color="rgb(1.850891%, 39.161682%, 27.023315%)" offset="0.71875"/><stop stop-opacity="1" stop-color="rgb(1.78833%, 38.772583%, 26.742554%)" offset="0.726562"/><stop stop-opacity="1" stop-color="rgb(1.725769%, 38.38501%, 26.463318%)" offset="0.734375"/><stop stop-opacity="1" stop-color="rgb(1.661682%, 37.995911%, 26.184082%)" offset="0.742188"/><stop stop-opacity="1" stop-color="rgb(1.61438%, 37.69989%, 25.971985%)" offset="0.75"/><stop stop-opacity="1" stop-color="rgb(1.599121%, 37.599182%, 25.898743%)" offset="1"/></linearGradient><clipPath id="c59e44eb9c"><path d="M 146 80 L 225 80 L 225 114 L 146 114 Z M 146 80 " clip-rule="nonzero"/></clipPath><clipPath id="5a74868dad"><path d="M -38.589844 51.257812 L 179.351562 -31.851562 L 263.796875 189.59375 L 45.855469 272.703125 Z M -38.589844 51.257812 " clip-rule="nonzero"/></clipPath><clipPath id="506c394313"><path d="M -38.589844 51.257812 L 179.351562 -31.851562 L 263.796875 189.59375 L 45.855469 272.703125 Z M -38.589844 51.257812 " clip-rule="nonzero"/></clipPath><clipPath id="2ca84d0d0a"><path d="M 139 168 L 253 168 L 253 202 L 139 202 Z M 139 168 " clip-rule="nonzero"/></clipPath><clipPath id="b9ac065a4a"><path d="M -38.589844 51.257812 L 179.351562 -31.851562 L 263.796875 189.59375 L 45.855469 272.703125 Z M -38.589844 51.257812 " clip-rule="nonzero"/></clipPath><clipPath id="ae3b6cd312"><path d="M -38.589844 51.257812 L 179.351562 -31.851562 L 263.796875 189.59375 L 45.855469 272.703125 Z M -38.589844 51.257812 " clip-rule="nonzero"/></clipPath><clipPath id="f9d3818b5a"><path d="M 2 7 L 83 7 L 83 212 L 2 212 Z M 2 7 " clip-rule="nonzero"/></clipPath><clipPath id="8adc6b5e66"><path d="M -38.589844 51.257812 L 179.351562 -31.851562 L 263.796875 189.59375 L 45.855469 272.703125 Z M -38.589844 51.257812 " clip-rule="nonzero"/></clipPath><clipPath id="ccf33f1332"><path d="M -38.589844 51.257812 L 179.351562 -31.851562 L 263.796875 189.59375 L 45.855469 272.703125 Z M -38.589844 51.257812 " clip-rule="nonzero"/></clipPath><clipPath id="d460b8b093"><path d="M 166 87 L 203 87 L 203 100 L 166 100 Z M 166 87 " clip-rule="nonzero"/></clipPath><clipPath id="cdd70f54ef"><path d="M -38.589844 51.257812 L 179.351562 -31.851562 L 263.796875 189.59375 L 45.855469 272.703125 Z M -38.589844 51.257812 " clip-rule="nonzero"/></clipPath><clipPath id="58e56b7d03"><path d="M -38.589844 51.257812 L 179.351562 -31.851562 L 263.796875 189.59375 L 45.855469 272.703125 Z M -38.589844 51.257812 " clip-rule="nonzero"/></clipPath><clipPath id="c5762ef6f9"><path d="M 182 48 L 223 48 L 223 96 L 182 96 Z M 182 48 " clip-rule="nonzero"/></clipPath><clipPath id="315b152629"><path d="M -38.589844 51.257812 L 179.351562 -31.851562 L 263.796875 189.59375 L 45.855469 272.703125 Z M -38.589844 51.257812 " clip-rule="nonzero"/></clipPath><clipPath id="3c248b82b6"><path d="M -38.589844 51.257812 L 179.351562 -31.851562 L 263.796875 189.59375 L 45.855469 272.703125 Z M -38.589844 51.257812 " clip-rule="nonzero"/></clipPath><clipPath id="428655823f"><path d="M 49 69 L 66 69 L 66 185 L 49 185 Z M 49 69 " clip-rule="nonzero"/></clipPath><clipPath id="c627ca5b05"><path d="M -38.589844 51.257812 L 179.351562 -31.851562 L 263.796875 189.59375 L 45.855469 272.703125 Z M -38.589844 51.257812 " clip-rule="nonzero"/></clipPath><clipPath id="ea2c2350f2"><path d="M -38.589844 51.257812 L 179.351562 -31.851562 L 263.796875 189.59375 L 45.855469 272.703125 Z M -38.589844 51.257812 " clip-rule="nonzero"/></clipPath><clipPath id="8fc964ea49"><path d="M 107 60 L 165 60 L 165 125 L 107 125 Z M 107 60 " clip-rule="nonzero"/></clipPath><clipPath id="d091deb7e6"><path d="M -38.589844 51.257812 L 179.351562 -31.851562 L 263.796875 189.59375 L 45.855469 272.703125 Z M -38.589844 51.257812 " clip-rule="nonzero"/></clipPath><clipPath id="67c64974fc"><path d="M -38.589844 51.257812 L 179.351562 -31.851562 L 263.796875 189.59375 L 45.855469 272.703125 Z M -38.589844 51.257812 " clip-rule="nonzero"/></clipPath><clipPath id="c322043550"><path d="M 113 70 L 152 70 L 152 107 L 113 107 Z M 113 70 " clip-rule="nonzero"/></clipPath><clipPath id="453bcd6585"><path d="M -38.589844 51.257812 L 179.351562 -31.851562 L 263.796875 189.59375 L 45.855469 272.703125 Z M -38.589844 51.257812 " clip-rule="nonzero"/></clipPath><clipPath id="2ec1d39337"><path d="M -38.589844 51.257812 L 179.351562 -31.851562 L 263.796875 189.59375 L 45.855469 272.703125 Z M -38.589844 51.257812 " clip-rule="nonzero"/></clipPath></defs><g clip-path="url(#f4cf524fc3)"><g clip-path="url(#f86197a524)"><g clip-path="url(#9d0bad7638)"><g clip-path="url(#1d55539f35)"><path fill="url(#cfc1873545)" d="M -73.382812 32.558594 L 32.355469 309.847656 L 328.246094 197.015625 L 222.507812 -80.273438 Z M -73.382812 32.558594 " fill-rule="nonzero"/></g></g></g></g><g clip-path="url(#c59e44eb9c)"><g clip-path="url(#5a74868dad)"><g clip-path="url(#506c394313)"><path fill="#1fcf95" d="M 158.496094 80.515625 C 158.496094 80.515625 161.457031 83.34375 169.410156 82.945312 C 177.363281 82.550781 179.445312 83.074219 183.222656 84.082031 C 187 85.089844 195.777344 88.332031 198.230469 88.339844 C 200.683594 88.34375 208.234375 94.3125 213.414062 99.496094 C 218.59375 104.675781 224.566406 113.378906 224.566406 113.378906 C 224.566406 113.378906 205.035156 95.019531 190.265625 97.707031 C 175.5 100.394531 172.242188 99.753906 172.242188 99.753906 C 172.242188 99.753906 181.886719 95.675781 178.34375 92.53125 C 174.800781 89.390625 158.894531 85.921875 156.941406 86.527344 C 154.984375 87.128906 146.980469 84.910156 146.980469 84.910156 Z M 158.496094 80.515625 " fill-opacity="1" fill-rule="evenodd"/></g></g></g><g clip-path="url(#2ca84d0d0a)"><g clip-path="url(#b9ac065a4a)"><g clip-path="url(#ae3b6cd312)"><path fill="#1fcf95" d="M 139.519531 175.742188 C 155.710938 193.96875 168.261719 200.015625 192.347656 200.925781 C 195.6875 201.050781 199.925781 201.339844 202.9375 199.59375 C 209.722656 195.652344 246.753906 174.085938 248.957031 171.421875 C 251.382812 168.492188 252.136719 168.003906 252.136719 168.003906 C 252.136719 168.003906 203.839844 211.792969 139.519531 175.742188 Z M 139.519531 175.742188 " fill-opacity="1" fill-rule="evenodd"/></g></g></g><g clip-path="url(#f9d3818b5a)"><g clip-path="url(#8adc6b5e66)"><g clip-path="url(#ccf33f1332)"><path fill="#1fcf95" d="M 29.628906 144.421875 C 16.855469 78.027344 52.429688 70.667969 79.667969 21.605469 L 82.96875 7.394531 C 32.8125 34.925781 -5.46875 79.242188 4.472656 139.886719 C 5.621094 146.898438 25.875 211.851562 25.875 211.851562 C 25.875 211.851562 21.394531 146.546875 29.628906 144.421875 Z M 29.628906 144.421875 " fill-opacity="1" fill-rule="evenodd"/></g></g></g><g clip-path="url(#d460b8b093)"><g clip-path="url(#cdd70f54ef)"><g clip-path="url(#58e56b7d03)"><path fill="#348d70" d="M 166.074219 87.742188 C 166.074219 87.742188 181.285156 88.398438 186.613281 90.511719 C 191.941406 92.621094 202.488281 99.246094 202.488281 99.246094 C 202.488281 99.246094 185.417969 98.625 182.023438 99.050781 C 178.632812 99.476562 172.242188 99.753906 172.242188 99.753906 C 172.242188 99.753906 190.84375 92.503906 166.074219 87.742188 Z M 166.074219 87.742188 " fill-opacity="1" fill-rule="evenodd"/></g></g></g><g clip-path="url(#c5762ef6f9)"><g clip-path="url(#315b152629)"><g clip-path="url(#3c248b82b6)"><path fill="#348d70" d="M 222.101562 95.089844 C 222.101562 95.089844 212.109375 83.234375 205.253906 76.625 C 198.398438 70.011719 196.777344 67.242188 194.761719 64.429688 C 192.75 61.621094 182.695312 50.578125 182.695312 50.578125 C 182.695312 50.578125 191.980469 56.640625 194.300781 58.769531 C 196.621094 60.898438 201.476562 64.324219 201.476562 64.324219 C 201.476562 64.324219 204.964844 60.542969 204.265625 57.230469 C 203.570312 53.917969 201.664062 48.429688 201.664062 48.429688 C 201.664062 48.429688 220.621094 78.863281 222.101562 95.089844 Z M 222.101562 95.089844 " fill-opacity="1" fill-rule="evenodd"/></g></g></g><g clip-path="url(#428655823f)"><g clip-path="url(#c627ca5b05)"><g clip-path="url(#ea2c2350f2)"><path fill="#1fcf95" d="M 59.882812 184.964844 C 59.882812 184.964844 61.425781 140.320312 63.023438 122.765625 C 64.621094 105.207031 66 69.28125 66 69.28125 L 59.53125 78.242188 C 59.53125 78.242188 36.820312 141.042969 59.882812 184.964844 Z M 59.882812 184.964844 " fill-opacity="1" fill-rule="evenodd"/></g></g></g><g clip-path="url(#8fc964ea49)"><g clip-path="url(#d091deb7e6)"><g clip-path="url(#67c64974fc)"><path fill="#1fcf95" d="M 110.726562 124.105469 C 110.726562 124.105469 104.570312 95.808594 109.269531 88.367188 C 113.972656 80.925781 119.035156 79.371094 118.140625 74.066406 C 117.246094 68.757812 112.875 60.253906 112.875 60.253906 C 112.875 60.253906 121.824219 68.894531 127.011719 67.667969 C 132.199219 66.445312 135.441406 64.078125 141.285156 62.601562 C 147.132812 61.125 164.359375 66.230469 164.359375 66.230469 C 164.359375 66.230469 114.394531 75.117188 110.726562 124.105469 Z M 110.726562 124.105469 " fill-opacity="1" fill-rule="evenodd"/></g></g></g><g clip-path="url(#c322043550)"><g clip-path="url(#453bcd6585)"><g clip-path="url(#2ec1d39337)"><path fill="#348d70" d="M 113.625 106.941406 C 121.855469 82.15625 125.386719 76.0625 151.230469 70.367188 C 151.230469 70.367188 125.117188 82.296875 113.625 106.941406 Z M 113.625 106.941406 " fill-opacity="1" fill-rule="evenodd"/></g></g></g><g fill="#1fcf95" fill-opacity="1"><g transform="translate(126.79263, 156.071248)"><g><path d="M 41.0625 -43.640625 L 41.0625 0 L 34.53125 0 L 10.15625 -33.484375 L 10.15625 0 L 3.453125 0 L 3.453125 -43.640625 L 10.21875 -43.640625 L 34.59375 -9.96875 L 34.59375 -43.640625 Z M 41.0625 -43.640625 "/></g></g></g><g fill="#1fcf95" fill-opacity="1"><g transform="translate(171.426169, 156.071248)"><g><path d="M 17.421875 0.734375 C 15.285156 0.734375 13.285156 0.335938 11.421875 -0.453125 C 9.554688 -1.253906 7.925781 -2.351562 6.53125 -3.75 C 5.132812 -5.144531 4.035156 -6.785156 3.234375 -8.671875 C 2.429688 -10.566406 2.03125 -12.582031 2.03125 -14.71875 C 2.03125 -16.851562 2.410156 -18.863281 3.171875 -20.75 C 3.929688 -22.632812 4.957031 -24.273438 6.25 -25.671875 C 7.539062 -27.066406 9.046875 -28.164062 10.765625 -28.96875 C 12.492188 -29.769531 14.34375 -30.171875 16.3125 -30.171875 C 18.320312 -30.171875 20.175781 -29.820312 21.875 -29.125 C 23.582031 -28.425781 25.0625 -27.335938 26.3125 -25.859375 C 27.570312 -24.378906 28.546875 -22.5 29.234375 -20.21875 C 29.929688 -17.945312 30.28125 -15.226562 30.28125 -12.0625 L 8.375 -12.0625 C 8.65625 -11 9.101562 -10.003906 9.71875 -9.078125 C 10.34375 -8.160156 11.070312 -7.359375 11.90625 -6.671875 C 12.75 -5.992188 13.691406 -5.472656 14.734375 -5.109375 C 15.785156 -4.742188 16.882812 -4.5625 18.03125 -4.5625 C 19.59375 -4.5625 21.039062 -4.847656 22.375 -5.421875 C 23.707031 -5.992188 24.847656 -6.753906 25.796875 -7.703125 L 29.484375 -4 C 28.046875 -2.5625 26.289062 -1.410156 24.21875 -0.546875 C 22.144531 0.304688 19.878906 0.734375 17.421875 0.734375 Z M 16.3125 -24.75 C 15.363281 -24.75 14.46875 -24.5625 13.625 -24.1875 C 12.789062 -23.820312 12.015625 -23.3125 11.296875 -22.65625 C 10.578125 -22 9.960938 -21.21875 9.453125 -20.3125 C 8.941406 -19.414062 8.5625 -18.429688 8.3125 -17.359375 L 23.890625 -17.359375 C 23.804688 -18.347656 23.578125 -19.289062 23.203125 -20.1875 C 22.835938 -21.09375 22.328125 -21.882812 21.671875 -22.5625 C 21.015625 -23.238281 20.242188 -23.769531 19.359375 -24.15625 C 18.472656 -24.550781 17.457031 -24.75 16.3125 -24.75 Z M 16.3125 -24.75 "/></g></g></g><g fill="#1fcf95" fill-opacity="1"><g transform="translate(204.054831, 156.071248)"><g><path d="M 30.90625 0 L 23.640625 0 L 16.0625 -10.34375 L 8.4375 0 L 1.171875 0 L 12.4375 -15.265625 L 1.96875 -29.484375 L 9.234375 -29.484375 L 16.0625 -20.25 L 22.84375 -29.484375 L 30.109375 -29.484375 L 19.703125 -15.265625 Z M 30.90625 0 "/></g></g></g><g fill="#1fcf95" fill-opacity="1"><g transform="translate(235.944725, 156.071248)"><g><path d="M 19.453125 -0.0625 C 17.773438 0.507812 16.113281 0.859375 14.46875 0.984375 C 12.820312 1.109375 11.34375 0.875 10.03125 0.28125 C 8.71875 -0.3125 7.648438 -1.359375 6.828125 -2.859375 C 6.015625 -4.359375 5.609375 -6.460938 5.609375 -9.171875 L 5.609375 -24.125 L 1.296875 -24.125 L 1.296875 -28.25 L 5.609375 -29.484375 L 5.609375 -37.375 L 11.578125 -37.375 L 11.578125 -29.484375 L 19.578125 -29.484375 L 19.578125 -24.125 L 11.578125 -24.125 L 11.578125 -8.25 C 11.578125 -7.257812 11.6875 -6.476562 11.90625 -5.90625 C 12.132812 -5.332031 12.515625 -4.898438 13.046875 -4.609375 C 13.585938 -4.328125 14.285156 -4.1875 15.140625 -4.1875 C 16.003906 -4.1875 17.050781 -4.269531 18.28125 -4.4375 Z M 19.453125 -0.0625 "/></g></g></g><g fill="#1fcf95" fill-opacity="1"><g transform="translate(273.067513, 156.071248)"><g><path d="M 32.5625 -12.25 C 32.5625 -10.40625 32.191406 -8.691406 31.453125 -7.109375 C 30.710938 -5.523438 29.628906 -4.140625 28.203125 -2.953125 C 25.367188 -0.578125 21.734375 0.609375 17.296875 0.609375 C 13.847656 0.609375 10.726562 -0.09375 7.9375 -1.5 C 5.144531 -2.914062 3.09375 -4.816406 1.78125 -7.203125 L 7.265625 -10.03125 C 8.085938 -8.550781 9.390625 -7.410156 11.171875 -6.609375 C 12.960938 -5.816406 15.003906 -5.421875 17.296875 -5.421875 C 23.242188 -5.421875 26.21875 -7.695312 26.21875 -12.25 C 26.21875 -13.113281 26.0625 -13.851562 25.75 -14.46875 C 25.445312 -15.082031 24.988281 -15.65625 24.375 -16.1875 C 22.894531 -17.414062 20.25 -18.523438 16.4375 -19.515625 C 14.132812 -20.085938 12.179688 -20.722656 10.578125 -21.421875 C 8.984375 -22.117188 7.65625 -22.941406 6.59375 -23.890625 C 4 -25.984375 2.703125 -28.753906 2.703125 -32.203125 C 2.703125 -33.921875 3.039062 -35.53125 3.71875 -37.03125 C 4.394531 -38.53125 5.351562 -39.832031 6.59375 -40.9375 C 7.863281 -42.039062 9.347656 -42.867188 11.046875 -43.421875 C 12.753906 -43.984375 14.632812 -44.265625 16.6875 -44.265625 C 19.675781 -44.265625 22.429688 -43.6875 24.953125 -42.53125 C 27.484375 -41.382812 29.40625 -39.765625 30.71875 -37.671875 L 25.734375 -34.59375 C 24.546875 -36.03125 23.171875 -37.046875 21.609375 -37.640625 C 20.046875 -38.234375 18.40625 -38.53125 16.6875 -38.53125 C 15.457031 -38.53125 14.328125 -38.328125 13.296875 -37.921875 C 12.273438 -37.515625 11.414062 -37.019531 10.71875 -36.4375 C 10.132812 -35.945312 9.707031 -35.34375 9.4375 -34.625 C 9.175781 -33.90625 9.046875 -33.140625 9.046875 -32.328125 C 9.046875 -31.785156 9.128906 -31.238281 9.296875 -30.6875 C 9.460938 -30.132812 9.851562 -29.5625 10.46875 -28.96875 C 11.082031 -28.375 11.984375 -27.796875 13.171875 -27.234375 C 14.359375 -26.679688 15.976562 -26.140625 18.03125 -25.609375 C 20.5 -24.992188 22.570312 -24.328125 24.25 -23.609375 C 25.9375 -22.890625 27.351562 -22.035156 28.5 -21.046875 C 31.207031 -18.835938 32.5625 -15.90625 32.5625 -12.25 Z M 32.5625 -12.25 "/></g></g></g><g fill="#1fcf95" fill-opacity="1"><g transform="translate(308.774353, 156.071248)"><g><path d="M 9.671875 0 L 3.6875 0 L 3.6875 -29.484375 L 9.609375 -29.484375 Z M 6.65625 -35.890625 C 5.582031 -35.890625 4.675781 -36.269531 3.9375 -37.03125 C 3.195312 -37.789062 2.828125 -38.703125 2.828125 -39.765625 C 2.828125 -40.835938 3.195312 -41.742188 3.9375 -42.484375 C 4.675781 -43.222656 5.582031 -43.59375 6.65625 -43.59375 C 7.71875 -43.59375 8.617188 -43.222656 9.359375 -42.484375 C 10.097656 -41.742188 10.46875 -40.835938 10.46875 -39.765625 C 10.46875 -38.703125 10.097656 -37.789062 9.359375 -37.03125 C 8.617188 -36.269531 7.71875 -35.890625 6.65625 -35.890625 Z M 6.65625 -35.890625 "/></g></g></g><g fill="#1fcf95" fill-opacity="1"><g transform="translate(321.702693, 156.071248)"><g><path d="M 19.453125 -0.0625 C 17.773438 0.507812 16.113281 0.859375 14.46875 0.984375 C 12.820312 1.109375 11.34375 0.875 10.03125 0.28125 C 8.71875 -0.3125 7.648438 -1.359375 6.828125 -2.859375 C 6.015625 -4.359375 5.609375 -6.460938 5.609375 -9.171875 L 5.609375 -24.125 L 1.296875 -24.125 L 1.296875 -28.25 L 5.609375 -29.484375 L 5.609375 -37.375 L 11.578125 -37.375 L 11.578125 -29.484375 L 19.578125 -29.484375 L 19.578125 -24.125 L 11.578125 -24.125 L 11.578125 -8.25 C 11.578125 -7.257812 11.6875 -6.476562 11.90625 -5.90625 C 12.132812 -5.332031 12.515625 -4.898438 13.046875 -4.609375 C 13.585938 -4.328125 14.285156 -4.1875 15.140625 -4.1875 C 16.003906 -4.1875 17.050781 -4.269531 18.28125 -4.4375 Z M 19.453125 -0.0625 "/></g></g></g><g fill="#1fcf95" fill-opacity="1"><g transform="translate(342.757398, 156.071248)"><g><path d="M 17.421875 0.734375 C 15.285156 0.734375 13.285156 0.335938 11.421875 -0.453125 C 9.554688 -1.253906 7.925781 -2.351562 6.53125 -3.75 C 5.132812 -5.144531 4.035156 -6.785156 3.234375 -8.671875 C 2.429688 -10.566406 2.03125 -12.582031 2.03125 -14.71875 C 2.03125 -16.851562 2.410156 -18.863281 3.171875 -20.75 C 3.929688 -22.632812 4.957031 -24.273438 6.25 -25.671875 C 7.539062 -27.066406 9.046875 -28.164062 10.765625 -28.96875 C 12.492188 -29.769531 14.34375 -30.171875 16.3125 -30.171875 C 18.320312 -30.171875 20.175781 -29.820312 21.875 -29.125 C 23.582031 -28.425781 25.0625 -27.335938 26.3125 -25.859375 C 27.570312 -24.378906 28.546875 -22.5 29.234375 -20.21875 C 29.929688 -17.945312 30.28125 -15.226562 30.28125 -12.0625 L 8.375 -12.0625 C 8.65625 -11 9.101562 -10.003906 9.71875 -9.078125 C 10.34375 -8.160156 11.070312 -7.359375 11.90625 -6.671875 C 12.75 -5.992188 13.691406 -5.472656 14.734375 -5.109375 C 15.785156 -4.742188 16.882812 -4.5625 18.03125 -4.5625 C 19.59375 -4.5625 21.039062 -4.847656 22.375 -5.421875 C 23.707031 -5.992188 24.847656 -6.753906 25.796875 -7.703125 L 29.484375 -4 C 28.046875 -2.5625 26.289062 -1.410156 24.21875 -0.546875 C 22.144531 0.304688 19.878906 0.734375 17.421875 0.734375 Z M 16.3125 -24.75 C 15.363281 -24.75 14.46875 -24.5625 13.625 -24.1875 C 12.789062 -23.820312 12.015625 -23.3125 11.296875 -22.65625 C 10.578125 -22 9.960938 -21.21875 9.453125 -20.3125 C 8.941406 -19.414062 8.5625 -18.429688 8.3125 -17.359375 L 23.890625 -17.359375 C 23.804688 -18.347656 23.578125 -19.289062 23.203125 -20.1875 C 22.835938 -21.09375 22.328125 -21.882812 21.671875 -22.5625 C 21.015625 -23.238281 20.242188 -23.769531 19.359375 -24.15625 C 18.472656 -24.550781 17.457031 -24.75 16.3125 -24.75 Z M 16.3125 -24.75 "/></g></g></g></svg>