<svg xmlns="http://www.w3.org/2000/svg" xmlns:xlink="http://www.w3.org/1999/xlink" width="500" zoomAndPan="magnify" viewBox="0 0 375 112.499997" height="150" preserveAspectRatio="xMidYMid meet" version="1.0"><defs><g/><clipPath id="5010f89a5c"><path d="M 0.828125 19 L 374 19 L 374 56 L 0.828125 56 Z M 0.828125 19 " clip-rule="nonzero"/></clipPath></defs><g clip-path="url(#5010f89a5c)"><path fill="#00bf63" d="M 373.878906 19.25 C 373.878906 19.367188 372.390625 21.320312 370.582031 23.65625 C 367.285156 27.855469 367.285156 27.855469 365.683594 28.203125 C 362.210938 28.992188 342.175781 32.230469 330.128906 33.949219 C 322.953125 35 319.6875 35.4375 308.398438 36.898438 C 299.734375 38.003906 284.917969 39.667969 275.730469 40.542969 C 273.953125 40.6875 271.179688 40.949219 269.546875 41.125 C 266.6875 41.386719 264.589844 41.5625 253.5625 42.4375 C 227.34375 44.507812 206.632812 45.121094 154.015625 45.355469 C 134.96875 45.441406 116.246094 45.589844 112.394531 45.675781 L 105.394531 45.851562 L 104.578125 49.554688 C 104.140625 51.566406 103.644531 53.726562 103.46875 54.339844 C 103.175781 55.445312 103.148438 55.476562 102.097656 55.273438 C 101.515625 55.15625 100.988281 55.039062 100.960938 55.039062 C 100.960938 55.007812 100.757812 53.199219 100.582031 51.011719 L 100.203125 47.074219 L 90.839844 46.695312 C 69.984375 45.910156 54.554688 45.035156 42.246094 43.898438 C 27.488281 42.527344 2.84375 39.785156 2.519531 39.433594 C 2.40625 39.316406 1.96875 38.035156 1.558594 36.605469 C 0.65625 33.511719 0.714844 31.996094 1.851562 28.320312 L 2.609375 25.929688 L 3.832031 26.105469 C 5.4375 26.308594 19.964844 27.707031 33.933594 29.019531 C 55.578125 31.003906 67.359375 31.851562 84.394531 32.667969 C 98.394531 33.339844 100.667969 33.398438 100.757812 33.105469 C 100.785156 32.929688 101.136719 30.800781 101.484375 28.351562 L 102.15625 23.886719 L 103.324219 23.976562 L 104.519531 24.0625 L 104.898438 26.25 C 105.101562 27.445312 105.421875 29.808594 105.628906 31.5 L 105.976562 34.5625 L 113.707031 34.738281 C 133.773438 35.203125 172.480469 35.351562 190.417969 35.03125 C 223.988281 34.417969 244.027344 33.367188 276.605469 30.449219 C 304.519531 27.972656 346.199219 23.128906 371.3125 19.453125 C 372.742188 19.25 373.878906 19.164062 373.878906 19.25 Z M 373.878906 19.25 " fill-opacity="1" fill-rule="nonzero"/></g><path fill="#00bf63" d="M 87.253906 58.976562 C 85.472656 65.101562 85.238281 68.25 86.433594 70.585938 C 87.28125 72.277344 87.195312 72.21875 92.066406 72.597656 C 95.242188 72.832031 95.855469 72.800781 97.460938 72.304688 C 100.320312 71.429688 104.605469 70.378906 106.941406 70 C 108.921875 69.679688 112.363281 69.882812 114.320312 70.46875 C 114.640625 70.554688 116.332031 73.355469 116.796875 74.609375 C 116.828125 74.640625 122.980469 74.902344 130.507812 75.164062 C 147.832031 75.777344 193.539062 75.894531 205.4375 75.308594 C 232.15625 74.054688 240.292969 73.589844 258.523438 72.335938 C 282.933594 70.613281 309.914062 68.25 328 66.179688 C 330.769531 65.890625 333.21875 65.625 333.453125 65.625 C 333.859375 65.625 335.875 69.476562 336.691406 71.78125 C 337.1875 73.179688 337.273438 77.089844 336.835938 79.335938 C 336.660156 80.210938 336.484375 80.9375 336.429688 81.027344 C 336.222656 81.203125 309.214844 84.175781 296.003906 85.429688 C 254.875 89.425781 221.335938 91.671875 191.144531 92.460938 C 171.867188 92.984375 153.433594 92.75 122.457031 91.703125 C 114.84375 91.4375 107.230469 91.292969 105.539062 91.382812 C 102.535156 91.527344 100.757812 91.410156 94.222656 90.679688 C 91.480469 90.390625 90.867188 90.390625 90.664062 90.710938 C 90.316406 91.265625 80.457031 90.945312 80.019531 90.332031 C 79.785156 90.011719 77.683594 89.804688 70.246094 89.425781 C 65.027344 89.164062 56.566406 88.667969 51.433594 88.347656 C 46.300781 88.054688 42.042969 87.792969 41.984375 87.792969 C 41.925781 87.792969 41.957031 85.140625 42.042969 81.871094 C 42.1875 76.679688 42.773438 71.722656 43.238281 71.226562 C 43.414062 71.082031 66.515625 72.21875 69.082031 72.507812 L 70.421875 72.65625 L 71.0625 70.613281 C 71.445312 69.476562 71.765625 68.542969 71.824219 68.542969 C 71.851562 68.542969 72.871094 68.863281 74.070312 69.273438 C 76.753906 70.207031 81.070312 71.34375 82.703125 71.578125 L 83.898438 71.75 L 83.753906 69.59375 C 83.546875 66.9375 83.925781 64.898438 85.445312 60.144531 C 86.492188 56.933594 86.667969 56.585938 87.28125 56.585938 L 87.980469 56.585938 Z M 87.253906 58.976562 " fill-opacity="1" fill-rule="nonzero"/><g fill="#8c52ff" fill-opacity="1"><g transform="translate(85.750407, 80.135249)"><g><path d="M 52.578125 -14.3125 C 52.578125 -12.582031 51.867188 -10.957031 50.453125 -9.4375 C 49.035156 -7.914062 47.203125 -6.53125 44.953125 -5.28125 C 42.710938 -4.039062 40.207031 -2.953125 37.4375 -2.015625 C 34.675781 -1.085938 31.945312 -0.296875 29.25 0.359375 C 26.550781 1.015625 24.007812 1.515625 21.625 1.859375 C 19.238281 2.210938 17.351562 2.390625 15.96875 2.390625 C 14.65625 2.390625 13.253906 2.265625 11.765625 2.015625 C 10.285156 1.773438 9.0625 1.242188 8.09375 0.421875 C 7.539062 0.00390625 7.054688 -0.925781 6.640625 -2.375 C 6.222656 -3.832031 5.820312 -5.5625 5.4375 -7.5625 C 5.0625 -9.570312 4.734375 -11.734375 4.453125 -14.046875 C 4.179688 -16.367188 3.957031 -18.632812 3.78125 -20.84375 C 3.613281 -23.0625 3.476562 -25.101562 3.375 -26.96875 C 3.269531 -28.832031 3.21875 -30.285156 3.21875 -31.328125 C 3.21875 -33.054688 3.269531 -35.144531 3.375 -37.59375 C 3.476562 -40.050781 3.632812 -42.675781 3.84375 -45.46875 C 4.050781 -48.269531 4.328125 -51.125 4.671875 -54.03125 C 5.015625 -56.9375 5.410156 -59.6875 5.859375 -62.28125 C 6.304688 -64.875 6.859375 -67.207031 7.515625 -69.28125 C 8.171875 -71.351562 8.878906 -72.976562 9.640625 -74.15625 C 10.953125 -76.019531 12.613281 -76.953125 14.625 -76.953125 C 16.007812 -76.953125 17.1875 -76.484375 18.15625 -75.546875 C 19.125 -74.617188 19.898438 -73.410156 20.484375 -71.921875 C 21.066406 -70.441406 21.515625 -68.785156 21.828125 -66.953125 C 22.140625 -65.117188 22.363281 -63.300781 22.5 -61.5 C 22.644531 -59.707031 22.71875 -58.050781 22.71875 -56.53125 C 22.71875 -55.007812 22.71875 -53.796875 22.71875 -52.890625 C 22.71875 -47.492188 22.59375 -42.148438 22.34375 -36.859375 C 22.101562 -31.578125 21.984375 -26.238281 21.984375 -20.84375 L 21.984375 -16.796875 C 25.097656 -17.765625 28.484375 -18.679688 32.140625 -19.546875 C 35.804688 -20.410156 39.300781 -20.84375 42.625 -20.84375 C 43.800781 -20.84375 44.992188 -20.773438 46.203125 -20.640625 C 47.410156 -20.503906 48.476562 -20.207031 49.40625 -19.75 C 50.34375 -19.300781 51.101562 -18.644531 51.6875 -17.78125 C 52.28125 -16.914062 52.578125 -15.757812 52.578125 -14.3125 Z M 52.578125 -14.3125 "/></g></g><g transform="translate(137.815392, 80.135249)"><g><path d="M 25.625 30.1875 C 23.957031 30.1875 22.066406 29.925781 19.953125 29.40625 C 17.847656 28.882812 15.863281 28.140625 14 27.171875 C 12.132812 26.203125 10.5625 25.023438 9.28125 23.640625 C 8 22.265625 7.359375 20.675781 7.359375 18.875 C 7.359375 18.1875 7.53125 17.492188 7.875 16.796875 C 8.226562 16.109375 8.695312 15.503906 9.28125 14.984375 C 9.863281 14.460938 10.5 14.046875 11.1875 13.734375 C 11.882812 13.429688 12.613281 13.28125 13.375 13.28125 C 14.207031 13.28125 15.019531 13.398438 15.8125 13.640625 C 16.613281 13.878906 17.425781 14.171875 18.25 14.515625 C 19.15625 14.859375 20.035156 15.171875 20.890625 15.453125 C 21.753906 15.734375 22.671875 15.875 23.640625 15.875 C 25.367188 15.875 26.875 15.285156 28.15625 14.109375 C 29.4375 12.929688 30.523438 11.390625 31.421875 9.484375 C 32.328125 7.585938 33.054688 5.476562 33.609375 3.15625 C 34.160156 0.84375 34.585938 -1.453125 34.890625 -3.734375 C 35.203125 -6.015625 35.425781 -8.15625 35.5625 -10.15625 C 35.707031 -12.164062 35.816406 -13.789062 35.890625 -15.03125 C 33.460938 -11.375 31.054688 -8.554688 28.671875 -6.578125 C 26.285156 -4.609375 23.363281 -3.625 19.90625 -3.625 C 17.28125 -3.625 14.984375 -4.175781 13.015625 -5.28125 C 11.046875 -6.394531 9.367188 -7.847656 7.984375 -9.640625 C 6.597656 -11.441406 5.457031 -13.5 4.5625 -15.8125 C 3.664062 -18.132812 2.988281 -20.539062 2.53125 -23.03125 C 2.082031 -25.519531 1.789062 -27.957031 1.65625 -30.34375 C 1.519531 -32.726562 1.519531 -34.921875 1.65625 -36.921875 C 1.726562 -38.441406 1.921875 -40.425781 2.234375 -42.875 C 2.546875 -45.332031 3.046875 -47.738281 3.734375 -50.09375 C 4.421875 -52.445312 5.382812 -54.4375 6.625 -56.0625 C 7.875 -57.6875 9.503906 -58.425781 11.515625 -58.28125 C 12.828125 -58.21875 13.894531 -57.648438 14.71875 -56.578125 C 15.550781 -55.503906 16.226562 -54.171875 16.75 -52.578125 C 17.269531 -50.992188 17.648438 -49.25 17.890625 -47.34375 C 18.128906 -45.445312 18.285156 -43.5625 18.359375 -41.6875 C 18.429688 -39.820312 18.445312 -38.109375 18.40625 -36.546875 C 18.375 -34.992188 18.359375 -33.804688 18.359375 -32.984375 C 18.359375 -31.804688 18.390625 -30.628906 18.453125 -29.453125 C 18.523438 -28.273438 18.769531 -27.21875 19.1875 -26.28125 C 19.601562 -25.351562 20.242188 -24.613281 21.109375 -24.0625 C 21.972656 -23.507812 23.195312 -23.234375 24.78125 -23.234375 C 26.582031 -23.234375 28.019531 -23.679688 29.09375 -24.578125 C 30.164062 -25.472656 30.957031 -26.59375 31.46875 -27.9375 C 31.988281 -29.289062 32.316406 -30.742188 32.453125 -32.296875 C 32.597656 -33.859375 32.671875 -35.332031 32.671875 -36.71875 C 32.671875 -37.6875 32.671875 -38.859375 32.671875 -40.234375 C 32.671875 -41.617188 32.6875 -43.070312 32.71875 -44.59375 C 32.757812 -46.113281 32.898438 -47.617188 33.140625 -49.109375 C 33.378906 -50.597656 33.757812 -51.945312 34.28125 -53.15625 C 34.800781 -54.363281 35.488281 -55.347656 36.34375 -56.109375 C 37.207031 -56.867188 38.332031 -57.25 39.71875 -57.25 C 41.445312 -57.25 42.929688 -56.570312 44.171875 -55.21875 C 45.421875 -53.875 46.476562 -52.113281 47.34375 -49.9375 C 48.207031 -47.757812 48.898438 -45.351562 49.421875 -42.71875 C 49.941406 -40.09375 50.335938 -37.484375 50.609375 -34.890625 C 50.890625 -32.304688 51.082031 -29.921875 51.1875 -27.734375 C 51.289062 -25.554688 51.34375 -23.847656 51.34375 -22.609375 C 51.34375 -19.703125 51.238281 -16.398438 51.03125 -12.703125 C 50.820312 -9.003906 50.421875 -5.203125 49.828125 -1.296875 C 49.242188 2.609375 48.363281 6.445312 47.1875 10.21875 C 46.007812 13.988281 44.46875 17.359375 42.5625 20.328125 C 40.664062 23.296875 38.332031 25.679688 35.5625 27.484375 C 32.800781 29.285156 29.488281 30.1875 25.625 30.1875 Z M 25.625 30.1875 "/></g></g><g transform="translate(192.784399, 80.135249)"><g><path d="M 32.5625 2.90625 C 31.382812 2.90625 30.453125 2.367188 29.765625 1.296875 C 29.078125 0.222656 28.554688 -1 28.203125 -2.375 C 27.859375 -3.757812 27.632812 -5.160156 27.53125 -6.578125 C 27.425781 -8.003906 27.375 -9.097656 27.375 -9.859375 C 27.375 -11.929688 27.492188 -14.003906 27.734375 -16.078125 C 27.984375 -18.148438 28.265625 -20.222656 28.578125 -22.296875 C 28.890625 -24.367188 29.164062 -26.441406 29.40625 -28.515625 C 29.644531 -30.585938 29.765625 -32.664062 29.765625 -34.75 C 29.765625 -35.570312 29.726562 -36.46875 29.65625 -37.4375 C 29.59375 -38.40625 29.4375 -39.320312 29.1875 -40.1875 C 28.945312 -41.050781 28.550781 -41.757812 28 -42.3125 C 27.445312 -42.863281 26.722656 -43.140625 25.828125 -43.140625 C 25.203125 -43.140625 24.507812 -42.640625 23.75 -41.640625 C 22.988281 -40.640625 22.28125 -39.5 21.625 -38.21875 C 20.96875 -36.9375 20.414062 -35.65625 19.96875 -34.375 C 19.519531 -33.101562 19.296875 -32.15625 19.296875 -31.53125 C 19.296875 -30.007812 19.3125 -28.46875 19.34375 -26.90625 C 19.375 -25.351562 19.390625 -23.78125 19.390625 -22.1875 L 19.390625 -16.171875 C 19.328125 -14.929688 19.222656 -13.65625 19.078125 -12.34375 C 18.941406 -11.03125 18.738281 -9.75 18.46875 -8.5 C 18.257812 -7.257812 17.945312 -6.066406 17.53125 -4.921875 C 17.113281 -3.785156 16.578125 -2.785156 15.921875 -1.921875 C 15.265625 -1.054688 14.484375 -0.347656 13.578125 0.203125 C 12.679688 0.753906 11.613281 1.03125 10.375 1.03125 C 8.988281 1.03125 7.84375 0.582031 6.9375 -0.3125 C 6.039062 -1.207031 5.316406 -2.363281 4.765625 -3.78125 C 4.210938 -5.195312 3.816406 -6.785156 3.578125 -8.546875 C 3.335938 -10.316406 3.164062 -12.046875 3.0625 -13.734375 C 2.957031 -15.429688 2.921875 -16.988281 2.953125 -18.40625 C 2.984375 -19.820312 3 -20.945312 3 -21.78125 L 3 -26.65625 C 3 -29.28125 2.945312 -31.867188 2.84375 -34.421875 C 2.75 -36.984375 2.703125 -39.546875 2.703125 -42.109375 C 2.703125 -43.492188 2.71875 -45.253906 2.75 -47.390625 C 2.78125 -49.535156 3.035156 -51.628906 3.515625 -53.671875 C 4.003906 -55.710938 4.800781 -57.457031 5.90625 -58.90625 C 7.019531 -60.363281 8.644531 -61.09375 10.78125 -61.09375 C 11.75 -61.09375 12.613281 -60.78125 13.375 -60.15625 C 14.132812 -59.53125 14.804688 -58.769531 15.390625 -57.875 C 15.984375 -56.976562 16.46875 -56.007812 16.84375 -54.96875 C 17.226562 -53.925781 17.523438 -53.023438 17.734375 -52.265625 C 18.421875 -53.234375 19.234375 -54.164062 20.171875 -55.0625 C 21.109375 -55.96875 22.160156 -56.765625 23.328125 -57.453125 C 24.503906 -58.148438 25.816406 -58.703125 27.265625 -59.109375 C 28.722656 -59.523438 30.382812 -59.734375 32.25 -59.734375 C 35.78125 -59.734375 38.53125 -58.882812 40.5 -57.1875 C 42.46875 -55.5 43.914062 -53.394531 44.84375 -50.875 C 45.78125 -48.351562 46.351562 -45.640625 46.5625 -42.734375 C 46.769531 -39.828125 46.875 -37.195312 46.875 -34.84375 C 46.875 -33.664062 46.769531 -31.921875 46.5625 -29.609375 C 46.351562 -27.296875 46.023438 -24.738281 45.578125 -21.9375 C 45.128906 -19.132812 44.523438 -16.265625 43.765625 -13.328125 C 43.003906 -10.390625 42.101562 -7.707031 41.0625 -5.28125 C 40.03125 -2.863281 38.804688 -0.894531 37.390625 0.625 C 35.972656 2.144531 34.363281 2.90625 32.5625 2.90625 Z M 32.5625 2.90625 "/></g></g><g transform="translate(242.360222, 80.135249)"><g><path d="M 46.875 -53.515625 C 46.875 -52.410156 46.664062 -51.253906 46.25 -50.046875 C 45.84375 -48.835938 45.328125 -47.609375 44.703125 -46.359375 C 44.078125 -45.117188 43.414062 -43.925781 42.71875 -42.78125 C 42.03125 -41.644531 41.410156 -40.59375 40.859375 -39.625 C 39.472656 -37.40625 38.109375 -35.15625 36.765625 -32.875 C 35.421875 -30.59375 34.054688 -28.347656 32.671875 -26.140625 C 33.296875 -25.171875 34.160156 -23.820312 35.265625 -22.09375 C 36.367188 -20.363281 37.457031 -18.546875 38.53125 -16.640625 C 39.601562 -14.742188 40.519531 -12.859375 41.28125 -10.984375 C 42.039062 -9.117188 42.421875 -7.53125 42.421875 -6.21875 C 42.421875 -4.976562 41.9375 -3.769531 40.96875 -2.59375 C 40 -1.414062 38.820312 -0.828125 37.4375 -0.828125 C 35.988281 -0.828125 34.519531 -1.34375 33.03125 -2.375 C 31.539062 -3.414062 30.085938 -4.644531 28.671875 -6.0625 C 27.253906 -7.476562 25.957031 -8.960938 24.78125 -10.515625 C 23.613281 -12.078125 22.613281 -13.378906 21.78125 -14.421875 C 20.882812 -13.453125 19.722656 -12.132812 18.296875 -10.46875 C 16.878906 -8.8125 15.359375 -7.1875 13.734375 -5.59375 C 12.117188 -4.007812 10.515625 -2.644531 8.921875 -1.5 C 7.328125 -0.363281 5.910156 0.203125 4.671875 0.203125 C 3.210938 0.203125 2.066406 -0.3125 1.234375 -1.34375 C 0.410156 -2.382812 0 -3.597656 0 -4.984375 C 0 -6.359375 0.460938 -8.117188 1.390625 -10.265625 C 2.328125 -12.410156 3.4375 -14.625 4.71875 -16.90625 C 6 -19.1875 7.273438 -21.363281 8.546875 -23.4375 C 9.828125 -25.507812 10.816406 -27.132812 11.515625 -28.3125 C 10.816406 -29.5625 9.945312 -31.203125 8.90625 -33.234375 C 7.875 -35.273438 6.890625 -37.421875 5.953125 -39.671875 C 5.023438 -41.921875 4.234375 -44.132812 3.578125 -46.3125 C 2.921875 -48.488281 2.59375 -50.300781 2.59375 -51.75 C 2.59375 -53.34375 3.078125 -54.625 4.046875 -55.59375 C 5.015625 -56.5625 6.289062 -57.046875 7.875 -57.046875 C 9.601562 -57.046875 11.226562 -56.367188 12.75 -55.015625 C 14.269531 -53.671875 15.6875 -52.046875 17 -50.140625 C 18.320312 -48.242188 19.484375 -46.273438 20.484375 -44.234375 C 21.484375 -42.191406 22.296875 -40.515625 22.921875 -39.203125 C 23.753906 -40.453125 24.910156 -42.144531 26.390625 -44.28125 C 27.878906 -46.425781 29.554688 -48.535156 31.421875 -50.609375 C 33.285156 -52.679688 35.21875 -54.476562 37.21875 -56 C 39.226562 -57.519531 41.132812 -58.28125 42.9375 -58.28125 C 44.113281 -58.28125 45.0625 -57.78125 45.78125 -56.78125 C 46.507812 -55.78125 46.875 -54.691406 46.875 -53.515625 Z M 46.875 -53.515625 "/></g></g></g></svg>